<?xml version="1.0" encoding="UTF-8" standalone="no"?>
<svg
   height="16"
   viewBox="0 0 16 16"
   width="16"
   version="1.1"
   id="svg1"
   sodipodi:docname="behaviornode.svg"
   inkscape:version="1.3.2 (091e20e, 2023-11-25, custom)"
   xmlns:inkscape="http://www.inkscape.org/namespaces/inkscape"
   xmlns:sodipodi="http://sodipodi.sourceforge.net/DTD/sodipodi-0.dtd"
   xmlns="http://www.w3.org/2000/svg"
   xmlns:svg="http://www.w3.org/2000/svg">
  <defs
     id="defs1" />
  <sodipodi:namedview
     id="namedview1"
     pagecolor="#ffffff"
     bordercolor="#000000"
     borderopacity="0.25"
     inkscape:showpageshadow="2"
     inkscape:pageopacity="0.0"
     inkscape:pagecheckerboard="0"
     inkscape:deskcolor="#d1d1d1"
     inkscape:zoom="73.8125"
     inkscape:cx="8"
     inkscape:cy="8"
     inkscape:window-width="2560"
     inkscape:window-height="1377"
     inkscape:window-x="1432"
     inkscape:window-y="483"
     inkscape:window-maximized="1"
     inkscape:current-layer="svg1" />
  <circle
     cx="8"
     cy="8"
     fill="none"
     stroke-width="2"
     stroke="#e0e0e0"
     id="circle1"
     style="stroke:#ff9955;stroke-opacity:1"
     r="5" />
  <path
     style="fill:#ff7f2a;stroke:#aa87de;stroke-width:0.0135478"
     d="M 7.6545301,13.99344 C 6.3648952,13.903366 5.2189586,13.459177 4.2269263,12.664827 4.0083934,12.489841 3.6828613,12.175913 3.4778178,11.942422 2.5880371,10.929192 2.0556068,9.5958503 2.0076706,8.2607959 1.9609241,6.9588757 2.2899138,5.7642062 2.987944,4.7011008 3.5772843,3.803531 4.4320505,3.0561389 5.3984634,2.5933863 6.0396368,2.2863698 6.6714685,2.1097046 7.4377646,2.0231812 c 0.2379346,-0.026865 0.9318583,-0.022734 1.1854361,0.00706 0.7332178,0.086143 1.3493221,0.26161 1.9779843,0.5633303 0.639153,0.3067549 1.178992,0.6955886 1.686988,1.2150996 0.500564,0.5119106 0.844241,1.009383 1.159381,1.678206 0.3227,0.6848661 0.517825,1.4935511 0.545092,2.2591025 0.02177,0.6111679 -0.02909,1.1212933 -0.168488,1.6900931 -0.378035,1.5425033 -1.346269,2.8581813 -2.724991,3.7028363 -0.20508,0.125639 -0.649348,0.346652 -0.877321,0.436446 -0.5007437,0.197234 -1.00256,0.322997 -1.544454,0.387066 -0.2209811,0.02613 -0.828947,0.04456 -1.0228619,0.03102 z m 0.8670618,-2.028938 c 0.4613156,-0.06491 0.8316387,-0.179436 1.253843,-0.387764 0.3953471,-0.195076 0.6960341,-0.408049 1.0132701,-0.717687 1.000406,-0.9764436 1.41377,-2.3680678 1.110817,-3.7396607 C 11.78889,6.6185122 11.559074,6.1074953 11.247595,5.6697714 11.055105,5.3992633 10.726277,5.0547402 10.472481,4.8576597 9.7191779,4.2726976 8.8203354,3.9782396 7.8780694,4.0077388 7.0277884,4.0343583 6.2384741,4.316271 5.5517742,4.8386016 5.3774706,4.9711837 5.0099701,5.33461 4.8687504,5.5140532 3.9419036,6.6917664 3.743378,8.2744243 4.3519741,9.6338248 4.5599755,10.09843 4.8124624,10.459683 5.1938986,10.838432 c 0.3349576,0.332597 0.626027,0.540282 1.0448821,0.745546 0.4472669,0.219189 0.8914391,0.345867 1.3964853,0.398281 0.1675589,0.01739 0.7144066,0.0064 0.8863259,-0.01776 z"
     id="path1" />
</svg>
