<?xml version="1.0" encoding="UTF-8" standalone="no"?>
<svg
   height="16"
   viewBox="0 0 16 16"
   width="16"
   version="1.1"
   id="svg1"
   sodipodi:docname="limiter.svg"
   inkscape:version="1.3.2 (091e20e, 2023-11-25, custom)"
   xmlns:inkscape="http://www.inkscape.org/namespaces/inkscape"
   xmlns:sodipodi="http://sodipodi.sourceforge.net/DTD/sodipodi-0.dtd"
   xmlns="http://www.w3.org/2000/svg"
   xmlns:svg="http://www.w3.org/2000/svg">
  <defs
     id="defs1" />
  <sodipodi:namedview
     id="namedview1"
     pagecolor="#ffffff"
     bordercolor="#000000"
     borderopacity="0.25"
     inkscape:showpageshadow="2"
     inkscape:pageopacity="0.0"
     inkscape:pagecheckerboard="0"
     inkscape:deskcolor="#d1d1d1"
     inkscape:zoom="73.8125"
     inkscape:cx="8"
     inkscape:cy="9.0838273"
     inkscape:window-width="2560"
     inkscape:window-height="1377"
     inkscape:window-x="1432"
     inkscape:window-y="483"
     inkscape:window-maximized="1"
     inkscape:current-layer="svg1" />
  <path
     d="M1 11a2 2 0 0 0 4 0 2 2 0 0 0-4 0zm0-5a1 1 0 0 0 2 0V4a1 1 0 0 0-2 0zm5.867 4a4 4 0 0 1 0 2h7.13a1 1 0 0 0 0-2zM7 5a1 1 0 1 0 2 0 1 1 0 0 0-2 0zm6 1a1 1 0 0 0 2 0V4a1 1 0 0 0-2 0z"
     fill="#8eef97"
     id="path1"
     style="fill:#d4ff2a" />
</svg>
