<?xml version="1.0" encoding="UTF-8" standalone="no"?>
<svg
   height="16"
   viewBox="0 0 16 16"
   width="16"
   version="1.1"
   id="svg1"
   sodipodi:docname="selector.svg"
   inkscape:version="1.3.2 (091e20e, 2023-11-25, custom)"
   xmlns:inkscape="http://www.inkscape.org/namespaces/inkscape"
   xmlns:sodipodi="http://sodipodi.sourceforge.net/DTD/sodipodi-0.dtd"
   xmlns="http://www.w3.org/2000/svg"
   xmlns:svg="http://www.w3.org/2000/svg">
  <defs
     id="defs1" />
  <sodipodi:namedview
     id="namedview1"
     pagecolor="#ffffff"
     bordercolor="#000000"
     borderopacity="0.25"
     inkscape:showpageshadow="2"
     inkscape:pageopacity="0.0"
     inkscape:pagecheckerboard="0"
     inkscape:deskcolor="#d1d1d1"
     inkscape:zoom="73.8125"
     inkscape:cx="8"
     inkscape:cy="8"
     inkscape:window-width="2560"
     inkscape:window-height="1377"
     inkscape:window-x="1432"
     inkscape:window-y="483"
     inkscape:window-maximized="1"
     inkscape:current-layer="svg1" />
  <path
     d="M3 2a2 2 0 0 0-2 2v9a2 2 0 0 0 2 2h9a2 2 0 0 0 2-2V8l-2 2v3H3V4h7l2-2zm9.363 2.05L7.414 9 6 7.586 4.586 9l2.828 2.828 6.363-6.363z"
     fill="#8eef97"
     id="path1" />
  <path
     style="fill:#5f5fd3;stroke-width:0.0135478"
     d="M 2.7649843,14.989166 C 1.9320603,14.891885 1.244924,14.273573 1.0456469,13.442039 L 1.0093141,13.290432 V 8.508044 c 0,-4.5599473 0.00114,-4.7876651 0.024464,-4.8958476 C 1.1228087,3.1992784 1.2947883,2.8827439 1.590916,2.5867638 1.8827039,2.2951212 2.1789632,2.1337491 2.6041414,2.034861 L 2.7298899,2.005614 7.3700254,2.001844 12.010161,1.998074 11.007655,3.0007286 10.005149,4.0033832 H 6.5063848 3.0076207 V 8.5012701 12.999153 H 7.5055038 12.003387 V 11.498696 9.9982378 l 1.002817,-1.0025058 1.002817,-1.0025059 -0.0039,2.6079589 c -0.0044,2.925052 0.0036,2.694338 -0.104985,3.02269 -0.0968,0.292749 -0.24361,0.53603 -0.458667,0.760089 -0.28621,0.298191 -0.642043,0.494689 -1.054639,0.582394 l -0.146314,0.0311 -4.6875527,0.0017 c -2.5781542,9.43e-4 -4.7327258,-0.0036 -4.787937,-0.01001 z"
     id="path2" />
  <path
     style="fill:#d38d5f;stroke-width:0.0135478"
     d="M 6.0016998,10.418296 4.5859846,9.0025321 5.2938227,8.294694 6.0016608,7.5868559 6.7061824,8.2912798 7.4107039,8.9957036 9.8865855,6.5198498 12.362467,4.0439959 13.073672,4.7552972 13.784876,5.4665986 10.601145,8.6503291 7.4174149,11.83406 Z"
     id="path3" />
  <path
     style="fill:#d38d5f;stroke-width:0.0135478"
     d="m 3.2514818,14.989916 c -0.4825061,-0.007 -0.6062786,-0.0127 -0.6828273,-0.03123 C 2.0553706,14.834443 1.6294236,14.541248 1.3380353,14.111601 1.2350781,13.959792 1.1180868,13.704967 1.0605517,13.507197 l -0.051238,-0.176122 -0.00348,-4.0304823 c -0.00191,-2.2167654 0.00192,-4.4023709 0.00851,-4.8569009 l 0.01199,-0.8264183 0.035643,-0.1267548 C 1.1630881,3.1309477 1.3165962,2.8664801 1.5783235,2.6009462 1.8629021,2.3122285 2.1404342,2.1548202 2.5630384,2.0424438 L 2.7027942,2.0052808 7.3564776,2.001667 12.010161,1.9980532 11.007655,3.0007201 10.005149,4.003387 H 6.5063848 3.0076207 V 8.5012701 12.999153 H 7.5055038 12.003387 V 11.498696 9.9982378 l 1.00254,-1.0024715 1.00254,-1.0024715 -7.64e-4,2.2150372 c -7.98e-4,2.315283 -0.011,3.04037 -0.04507,3.20403 -0.05194,0.249449 -0.19683,0.563503 -0.360642,0.781676 -0.30424,0.405201 -0.723683,0.667905 -1.241526,0.777587 l -0.153958,0.03261 -4.1828461,-0.0029 c -2.3005654,-0.0016 -4.448045,-0.0067 -4.7721771,-0.01146 z"
     id="path4" />
  <path
     style="fill:#ff9955;stroke-width:0.0135478"
     d="M 6.0016998,10.418296 4.5859846,9.0025321 5.2938227,8.294694 6.0016608,7.5868559 6.7061824,8.2912798 7.4107039,8.9957036 9.8865855,6.5198498 12.362467,4.0439959 13.073672,4.7552972 13.784876,5.4665986 10.601145,8.6503291 7.4174149,11.83406 Z"
     id="path5" />
  <path
     style="fill:#ff7f2a;stroke-width:0.0135478"
     d="M 3.1972904,14.989929 C 2.6015274,14.979375 2.5749975,14.97624 2.3268683,14.887079 1.9686588,14.758363 1.6117543,14.490525 1.3821848,14.178144 1.2650113,14.018703 1.1242175,13.72515 1.0571376,13.500423 l -0.054594,-0.182895 0.0012,-4.3149878 C 1.0044114,6.6292972 1.009856,4.4406435 1.0158478,4.1388654 1.0277074,3.5415581 1.0265315,3.5507818 1.1240506,3.2901384 1.2625852,2.9198715 1.5677996,2.5451032 1.9170195,2.3164632 2.1122472,2.1886444 2.2795071,2.1169382 2.5510685,2.0446392 L 2.7250981,1.9983065 H 7.3675952 12.010092 L 11.007621,3.0008467 10.005149,4.003387 H 6.5063848 3.0076207 V 8.5012701 12.999153 H 7.5055038 12.003387 V 11.498696 9.9982378 l 1.00254,-1.0024715 1.00254,-1.0024715 -5.25e-4,2.2421332 c -5.57e-4,2.380551 -0.0098,3.010152 -0.04678,3.188374 -0.07216,0.347688 -0.274716,0.711656 -0.548127,0.984902 -0.29108,0.290905 -0.588834,0.454371 -1.012633,0.555934 l -0.165224,0.0396 -4.2445985,-0.0023 c -2.3345292,-0.0013 -4.4915079,-0.0067 -4.7932861,-0.01201 z"
     id="path6" />
  <path
     style="fill:#ac9393;stroke-width:0.0135478"
     d="M 6.0016998,10.418296 4.5859846,9.0025321 5.2938227,8.294694 6.0016608,7.5868559 6.7061824,8.2912798 7.4107039,8.9957036 9.8865855,6.5198498 12.362467,4.0439959 13.073672,4.7552972 13.784876,5.4665986 10.601145,8.6503291 7.4174149,11.83406 Z"
     id="path7" />
  <path
     style="fill:#ac9d93;stroke-width:0.0135478"
     d="M 3.4479255,14.990017 C 2.9181924,14.983951 2.6363077,14.975664 2.58284,14.964584 2.3635904,14.919147 2.0515676,14.779802 1.8559302,14.639956 1.459811,14.356801 1.2052595,13.990226 1.0497055,13.478926 L 1.0006028,13.317528 1.006952,8.5486876 C 1.0113054,5.2789051 1.0178723,3.740305 1.0278428,3.6540536 1.0554914,3.4148735 1.1907504,3.0909696 1.3641087,2.8487994 1.4074137,2.7883053 1.5038103,2.6765687 1.5783235,2.6004959 1.8583827,2.3145747 2.1275877,2.1596103 2.5411612,2.0462506 l 0.174916,-0.047944 H 7.3630847 12.010092 L 11.007621,3.0008467 10.005149,4.003387 H 6.5063848 3.0076207 V 8.5012701 12.999153 H 7.5055038 12.003387 V 11.498696 9.9982378 l 1.0034,-1.0025058 1.0034,-1.0025059 -0.0064,2.5469939 c -0.004,1.600941 -0.0116,2.607381 -0.02049,2.709568 -0.05368,0.617129 -0.497267,1.242659 -1.092779,1.541005 -0.156719,0.07851 -0.285684,0.124517 -0.487176,0.173778 l -0.162234,0.03966 -4.0037269,-0.0026 c -2.2020498,-0.0014 -4.3573255,-0.0067 -4.7895016,-0.01161 z"
     id="path8" />
  <path
     style="fill:#ff9955;stroke-width:0.0135478"
     d="M 5.9982965,10.414893 4.5791781,8.9957261 5.2870168,8.2878873 5.9948555,7.5800486 6.7027795,8.2878763 7.4107035,8.995704 9.8865852,6.51985 12.362467,4.0439959 13.073672,4.7552972 13.784876,5.4665986 10.601146,8.650329 7.4174151,11.83406 Z"
     id="path9" />
  <path
     style="fill:#ff7f2a;stroke-width:0.0135478"
     d="M 2.7569856,14.988756 C 2.5030881,14.966729 2.2307355,14.874545 1.9869216,14.728112 1.804687,14.618663 1.6993438,14.534089 1.5477793,14.375549 1.3340246,14.151958 1.189582,13.904485 1.0673544,13.552438 l -0.05804,-0.167171 V 8.5351397 3.6850127 L 1.0381887,3.5563082 C 1.0540698,3.4855207 1.0923503,3.3640195 1.1232567,3.2863056 1.2380053,2.9977704 1.3587249,2.8180091 1.5973915,2.5802803 1.8827647,2.2960285 2.1229024,2.1606757 2.5595046,2.0379886 L 2.7007195,1.9983065 H 7.3621797 12.02364 L 11.021169,3.0008467 10.018697,4.003387 H 6.5131587 3.0076207 V 8.5012701 12.999153 H 7.5055038 12.003387 V 11.491922 9.98469 l 1.00254,-1.0024715 1.00254,-1.0024716 -2.82e-4,2.3843851 c -1.56e-4,1.311413 -0.006,2.521558 -0.01303,2.689213 -0.01708,0.408613 -0.05108,0.543493 -0.218528,0.867061 -0.104503,0.20193 -0.21961,0.354513 -0.394567,0.523027 -0.273609,0.263532 -0.537563,0.408376 -0.93585,0.513544 l -0.178644,0.04717 -4.6875531,-0.0018 c -2.5781541,-10e-4 -4.7485182,-0.0071 -4.8230313,-0.01357 z"
     id="path10" />
  <path
     style="fill:#ff7f2a;stroke-width:0.0135478"
     d="M 5.9972643,10.41386 4.5791459,8.9956938 5.2888821,8.2860543 5.9986183,7.5764146 6.7080305,8.2820586 7.4174428,8.9877025 9.8911818,6.5146223 12.364921,4.0415422 13.08005,4.7557368 13.79518,5.4699315 12.022061,7.2435096 C 11.046845,8.2189775 9.6113908,9.650449 8.832162,10.424557 l -1.4167794,1.40747 z"
     id="path11" />
</svg>
