<?xml version="1.0" encoding="UTF-8" standalone="no"?>
<svg
   height="16"
   viewBox="0 0 16 16"
   width="16"
   version="1.1"
   id="svg1"
   sodipodi:docname="timelimit.svg"
   inkscape:version="1.3.2 (091e20e, 2023-11-25, custom)"
   xmlns:inkscape="http://www.inkscape.org/namespaces/inkscape"
   xmlns:sodipodi="http://sodipodi.sourceforge.net/DTD/sodipodi-0.dtd"
   xmlns="http://www.w3.org/2000/svg"
   xmlns:svg="http://www.w3.org/2000/svg">
  <defs
     id="defs1" />
  <sodipodi:namedview
     id="namedview1"
     pagecolor="#ffffff"
     bordercolor="#000000"
     borderopacity="0.25"
     inkscape:showpageshadow="2"
     inkscape:pageopacity="0.0"
     inkscape:pagecheckerboard="0"
     inkscape:deskcolor="#d1d1d1"
     inkscape:zoom="52.193319"
     inkscape:cx="4.2821572"
     inkscape:cy="6.9644929"
     inkscape:window-width="2560"
     inkscape:window-height="1377"
     inkscape:window-x="1432"
     inkscape:window-y="483"
     inkscape:window-maximized="1"
     inkscape:current-layer="svg1" />
  <path
     d="M11 2a1 1 0 0 0-2 0v6H8V3a1 1 0 0 0-2 0v8.05l-2.5-1.8A1 1 0 0 0 1.875 11L6 15h6a2 2 0 0 0 2-2V4a1 1 0 0 0-2 0v4h-1z"
     fill="#e0e0e0"
     id="path1"
     style="fill:#d4ff2a;stroke:none" />
  <path
     d="m 9.4131082,7.3748922 h 1.1237888 m -0.5618943,0 v 1.6154447 m 0,-0.7023672 a 3.1606531,3.1606531 0 0 0 0,6.3213063 v -0.702368 m 0,0.702368 a 3.1606531,3.1606531 0 0 0 0,-6.3213063 m 3.0201783,3.1606523 h -0.561893 m -5.5487021,0 h 0.5618939 m 2.5285229,0 1.1237893,-1.123787"
     stroke="#e0e0e0"
     fill="none"
     stroke-linecap="round"
     stroke-width="0.702367"
     id="path1-7"
     style="fill:#ffffff;stroke:#d4ff2a;stroke-opacity:1" />
  <circle
     cx="9.9750013"
     cy="11.448623"
     r="0.56189382"
     fill="#e0e0e0"
     id="circle1"
     style="fill:#d4ff2a;stroke:none;stroke-width:0.561893" />
</svg>
